<?xml version="1.0" encoding="utf-8"?>
<!-- Generator: Adobe Illustrator 24.0.0, SVG Export Plug-In . SVG Version: 6.00 Build 0)  -->
<svg version="1.1" id="Layer_1" xmlns="http://www.w3.org/2000/svg" xmlns:xlink="http://www.w3.org/1999/xlink" x="0px" y="0px"
	 viewBox="0 0 92.7 48.3" style="enable-background:new 0 0 92.7 48.3;" xml:space="preserve">
<style type="text/css">
	.st0{fill:#00254F;}
	.st1{fill:#002550;}
	.st2{fill:#002650;}
	.st3{fill:#002651;}
	.st4{fill:#002751;}
	.st5{fill:#002752;}
	.st6{fill:#002853;}
	.st7{fill:#002854;}
	.st8{fill:#002954;}
	.st9{fill:#002955;}
	.st10{fill:#002A56;}
	.st11{fill:#002B56;}
	.st12{fill:#002B57;}
	.st13{fill:#002C58;}
	.st14{fill:#002C59;}
	.st15{fill:#002D59;}
	.st16{fill:#002D5A;}
	.st17{fill:#012D5A;}
	.st18{fill:#012E5B;}
	.st19{fill:#012E5C;}
	.st20{fill:#022F5C;}
	.st21{fill:#022F5D;}
	.st22{fill:#02305D;}
	.st23{fill:#03305E;}
	.st24{fill:#03315F;}
	.st25{fill:#043160;}
	.st26{fill:#043260;}
	.st27{fill:#043261;}
	.st28{fill:#053362;}
	.st29{fill:#053363;}
	.st30{fill:#053463;}
	.st31{fill:#063464;}
	.st32{fill:#063564;}
	.st33{fill:#063565;}
	.st34{fill:#073565;}
	.st35{fill:#073666;}
	.st36{fill:#073667;}
	.st37{fill:#083767;}
	.st38{fill:#083768;}
	.st39{fill:#083869;}
	.st40{fill:#093869;}
	.st41{fill:#09386A;}
	.st42{fill:#09396A;}
	.st43{fill:#0A396B;}
	.st44{fill:#0A3A6B;}
	.st45{fill:#0A3A6C;}
	.st46{fill:#0B3B6D;}
	.st47{fill:#0B3B6E;}
	.st48{fill:#0B3C6E;}
	.st49{fill:#0C3C6F;}
	.st50{fill:#0C3D70;}
	.st51{fill:#0D3D71;}
	.st52{fill:#0D3E71;}
	.st53{fill:#0D3E72;}
	.st54{fill:#0D3F72;}
	.st55{fill:#0E3F73;}
	.st56{fill:#0E3F74;}
	.st57{fill:#0E4074;}
	.st58{fill:#0E4075;}
	.st59{fill:#0F4176;}
	.st60{fill:#0F4277;}
	.st61{fill:#0F4278;}
	.st62{fill:#104379;}
	.st63{fill:#10447A;}
	.st64{fill:#10447B;}
	.st65{fill:#10457B;}
	.st66{fill:#11457C;}
	.st67{fill:#11457D;}
	.st68{fill:#11467D;}
	.st69{fill:url(#SVGID_1_);}
	.st70{fill:#11467E;}
	.st71{fill:#11477E;}
	.st72{fill:#11477F;}
	.st73{fill:#12477F;}
	.st74{fill:#124780;}
	.st75{fill:#124880;}
	.st76{fill:#124881;}
	.st77{fill:#124981;}
	.st78{fill:#124982;}
	.st79{fill:#124983;}
	.st80{fill:#134A83;}
	.st81{fill:#134A84;}
	.st82{fill:#134B85;}
	.st83{fill:#134B86;}
	.st84{fill:#134C86;}
	.st85{fill:#134C87;}
	.st86{fill:#134D88;}
	.st87{fill:#144D89;}
	.st88{fill:#144E89;}
	.st89{fill:#144E8A;}
	.st90{fill:#144F8B;}
	.st91{fill:#144F8C;}
	.st92{fill:#14508C;}
	.st93{fill:#14508D;}
	.st94{fill:#14518E;}
	.st95{fill:#14518F;}
	.st96{fill:#14528F;}
	.st97{fill:#145290;}
	.st98{fill:#155391;}
	.st99{fill:#144F8A;}
	.st100{fill:#134B84;}
	.st101{fill:#11457B;}
	.st102{fill:#10437A;}
	.st103{fill:#104378;}
	.st104{fill:#0F4177;}
	.st105{fill:#0D3F73;}
	.st106{fill:#0B3A6C;}
	.st107{fill:#09396B;}
	.st108{fill:#073767;}
	.st109{fill:#073665;}
</style>
<g id="blue">
	<g>
		<path class="st0" d="M74.8,20.8H17.9C7,22,6,28.4,14.8,31.7c1.6,0.6,3.2,0.9,4.8,1.2c19.1,2.8,37.5,2.9,55.2-0.3
			C86.8,30.1,86.8,22.1,74.8,20.8z"/>
		<path class="st1" d="M74.8,20.8H17.9C7,22,6,28.3,14.8,31.6c1.6,0.6,3.2,0.9,4.8,1.2c19.1,2.8,37.5,2.9,55.2-0.3
			C86.7,30.1,86.8,22.1,74.8,20.8z"/>
		<path class="st2" d="M74.8,20.8H17.9C7,21.9,6,28.3,14.9,31.6c1.5,0.6,3.2,0.9,4.8,1.2c19.1,2.8,37.5,2.9,55.1-0.3
			C86.7,30,86.8,22.1,74.8,20.8z"/>
		<path class="st2" d="M74.8,20.8H17.9C7,21.9,6,28.3,14.9,31.6c1.5,0.6,3.1,0.9,4.8,1.2c19.1,2.8,37.5,2.9,55.1-0.3
			C86.7,30,86.8,22.1,74.8,20.8z"/>
		<path class="st3" d="M74.7,20.8H17.9C7,21.9,6,28.3,14.9,31.5c1.5,0.6,3.1,0.9,4.8,1.2c19.1,2.8,37.5,2.9,55.1-0.3
			C86.7,30,86.8,22,74.7,20.8z"/>
		<path class="st4" d="M74.7,20.8H17.9C7,21.9,6.1,28.2,14.9,31.5c1.5,0.6,3.1,0.9,4.8,1.2c19.1,2.8,37.5,2.9,55.1-0.3
			C86.7,29.9,86.8,22,74.7,20.8z"/>
		<path class="st5" d="M74.7,20.8H18c-10.9,1.1-11.9,7.4-3.1,10.7c1.5,0.6,3.1,0.9,4.8,1.2c19.1,2.7,37.5,2.9,55.1-0.3
			C86.7,29.9,86.8,22,74.7,20.8z"/>
		<path class="st5" d="M74.7,20.8H18c-10.9,1.1-11.9,7.4-3.1,10.7c1.5,0.6,3.1,0.9,4.7,1.2c19,2.7,37.5,2.9,55.1-0.3
			C86.7,29.9,86.7,22,74.7,20.8z"/>
		<path class="st6" d="M74.7,20.8H18c-10.9,1.1-11.9,7.4-3.1,10.7c1.5,0.6,3.1,0.9,4.7,1.2c19,2.7,37.4,2.9,55-0.3
			C86.6,29.9,86.7,22,74.7,20.8z"/>
		<path class="st6" d="M74.7,20.7H18c-10.9,1.1-11.9,7.4-3.1,10.7c1.5,0.6,3.1,0.9,4.7,1.2c19,2.7,37.4,2.9,55-0.2
			C86.6,29.8,86.7,22,74.7,20.7z"/>
		<path class="st7" d="M74.7,20.7H18c-10.9,1.1-11.9,7.4-3.1,10.6c1.5,0.6,3.1,0.9,4.7,1.2c19,2.7,37.4,2.9,55-0.2
			C86.6,29.8,86.7,22,74.7,20.7z"/>
		<path class="st8" d="M74.7,20.7H18C7.1,21.8,6.1,28.1,15,31.3c1.5,0.6,3.1,0.9,4.7,1.2c19,2.7,37.4,2.9,55-0.2
			C86.6,29.8,86.7,21.9,74.7,20.7z"/>
		<path class="st9" d="M74.7,20.7H18C7.1,21.8,6.1,28.1,15,31.3c1.5,0.6,3.1,0.9,4.7,1.1c19,2.7,37.4,2.9,55-0.2
			C86.6,29.7,86.7,21.9,74.7,20.7z"/>
		<path class="st9" d="M74.7,20.7H18C7.1,21.8,6.2,28,15,31.3c1.5,0.6,3.1,0.9,4.7,1.1c19,2.7,37.4,2.9,54.9-0.2
			C86.6,29.7,86.7,21.9,74.7,20.7z"/>
		<path class="st10" d="M74.7,20.7H18C7.2,21.8,6.2,28,15,31.3c1.5,0.6,3.1,0.9,4.7,1.1c19,2.7,37.4,2.9,54.9-0.2
			C86.6,29.7,86.6,21.9,74.7,20.7z"/>
		<path class="st10" d="M74.6,20.7H18C7.2,21.8,6.2,28,15,31.2c1.5,0.6,3.1,0.9,4.7,1.1c19,2.7,37.4,2.9,54.9-0.2
			C86.6,29.6,86.6,21.9,74.6,20.7z"/>
		<path class="st11" d="M74.6,20.7H18.1C7.2,21.8,6.2,28,15,31.2c1.5,0.6,3.1,0.9,4.7,1.1c19,2.7,37.3,2.9,54.9-0.2
			C86.5,29.6,86.6,21.9,74.6,20.7z"/>
		<path class="st12" d="M74.6,20.6H18.1C7.2,21.7,6.2,28,15,31.2c1.5,0.6,3.1,0.9,4.7,1.1c19,2.7,37.3,2.8,54.9-0.2
			C86.5,29.6,86.6,21.9,74.6,20.6z"/>
		<path class="st12" d="M74.6,20.6H18.1c-10.9,1.1-11.8,7.3-3,10.5c1.5,0.6,3.1,0.9,4.7,1.1c19,2.7,37.3,2.8,54.9-0.2
			C86.5,29.6,86.6,21.8,74.6,20.6z"/>
		<path class="st13" d="M74.6,20.6H18.1c-10.9,1.1-11.8,7.3-3,10.5c1.5,0.6,3.1,0.9,4.7,1.1c19,2.7,37.3,2.8,54.8-0.2
			C86.5,29.5,86.6,21.8,74.6,20.6z"/>
		<path class="st13" d="M74.6,20.6H18.1c-10.8,1.1-11.8,7.3-3,10.5c1.5,0.6,3.1,0.9,4.7,1.1c19,2.7,37.3,2.8,54.8-0.2
			C86.5,29.5,86.6,21.8,74.6,20.6z"/>
		<path class="st14" d="M74.6,20.6H18.1c-10.8,1.1-11.8,7.3-3,10.5c1.5,0.6,3.1,0.9,4.7,1.1c19,2.7,37.3,2.8,54.8-0.2
			C86.5,29.5,86.6,21.8,74.6,20.6z"/>
		<path class="st15" d="M74.6,20.6H18.1c-10.8,1.1-11.8,7.2-3,10.4c1.5,0.6,3.1,0.9,4.7,1.1c19,2.7,37.3,2.8,54.8-0.2
			C86.5,29.4,86.5,21.8,74.6,20.6z"/>
		<path class="st16" d="M74.6,20.6H18.1c-10.8,1.1-11.8,7.2-3,10.4c1.5,0.6,3.1,0.9,4.7,1.1c18.9,2.7,37.3,2.8,54.8-0.2
			C86.5,29.4,86.5,21.8,74.6,20.6z"/>
		<path class="st17" d="M74.6,20.6H18.1c-10.8,1.1-11.8,7.2-3,10.4c1.5,0.6,3.1,0.9,4.7,1.1c18.9,2.7,37.2,2.8,54.7-0.2
			C86.4,29.4,86.5,21.8,74.6,20.6z"/>
		<path class="st18" d="M74.5,20.5H18.1c-10.8,1.1-11.8,7.2-3,10.4c1.5,0.6,3.1,0.9,4.7,1.1c18.9,2.7,37.2,2.8,54.7-0.2
			C86.4,29.3,86.5,21.7,74.5,20.5z"/>
		<path class="st18" d="M74.5,20.5H18.1c-10.8,1.1-11.8,7.2-3,10.4c1.5,0.6,3.1,0.9,4.7,1.1c18.9,2.7,37.2,2.8,54.7-0.2
			C86.4,29.3,86.5,21.7,74.5,20.5z"/>
		<path class="st19" d="M74.5,20.5H18.2c-10.8,1.1-11.8,7.2-3,10.4c1.5,0.6,3.1,0.9,4.7,1.1c18.9,2.7,37.2,2.8,54.7-0.2
			C86.4,29.3,86.5,21.7,74.5,20.5z"/>
		<path class="st20" d="M74.5,20.5H18.2c-10.8,1.1-11.8,7.2-3,10.3c1.5,0.6,3.1,0.9,4.7,1.1c18.9,2.7,37.2,2.8,54.7-0.2
			C86.4,29.3,86.5,21.7,74.5,20.5z"/>
		<path class="st20" d="M74.5,20.5H18.2c-10.8,1.1-11.8,7.2-3,10.3c1.5,0.6,3.1,0.9,4.7,1.1c18.9,2.6,37.2,2.8,54.7-0.2
			C86.4,29.2,86.4,21.7,74.5,20.5z"/>
		<path class="st21" d="M74.5,20.5H18.2c-10.8,1.1-11.8,7.1-3,10.3c1.5,0.6,3.1,0.9,4.7,1.1c18.9,2.6,37.2,2.8,54.6-0.2
			C86.4,29.2,86.4,21.7,74.5,20.5z"/>
		<path class="st22" d="M74.5,20.5H18.2c-10.8,1.1-11.8,7.1-3,10.3c1.5,0.6,3.1,0.9,4.7,1.1c18.9,2.6,37.2,2.8,54.6-0.2
			C86.4,29.2,86.4,21.7,74.5,20.5z"/>
		<path class="st23" d="M74.5,20.5H18.2c-10.8,1.1-11.8,7.1-3,10.3c1.5,0.6,3.1,0.9,4.7,1.1c18.9,2.6,37.1,2.8,54.6-0.2
			C86.3,29.1,86.4,21.6,74.5,20.5z"/>
		<path class="st23" d="M74.5,20.5H18.2c-10.8,1.1-11.8,7.1-3,10.2c1.5,0.5,3.1,0.9,4.7,1.1c18.9,2.6,37.1,2.8,54.6-0.2
			C86.3,29.1,86.4,21.6,74.5,20.5z"/>
		<path class="st24" d="M74.5,20.4H18.2c-10.8,1.1-11.8,7.1-3,10.2c1.5,0.5,3.1,0.9,4.7,1.1c18.9,2.6,37.1,2.8,54.6-0.2
			C86.3,29.1,86.4,21.6,74.5,20.4z"/>
		<path class="st24" d="M74.5,20.4H18.2c-10.8,1.1-11.8,7.1-3,10.2c1.5,0.5,3.1,0.9,4.7,1.1c18.9,2.6,37.1,2.8,54.5-0.2
			C86.3,29.1,86.4,21.6,74.5,20.4z"/>
		<path class="st25" d="M74.4,20.4H18.2c-10.8,1.1-11.8,7.1-3,10.2c1.5,0.5,3.1,0.9,4.7,1.1c18.9,2.6,37.1,2.8,54.5-0.2
			C86.3,29,86.4,21.6,74.4,20.4z"/>
		<path class="st26" d="M74.4,20.4H18.2c-10.8,1.1-11.8,7.1-3,10.2c1.5,0.5,3.1,0.9,4.7,1.1c18.9,2.6,37.1,2.8,54.5-0.2
			C86.3,29,86.3,21.6,74.4,20.4z"/>
		<path class="st27" d="M74.4,20.4H18.3c-10.8,1.1-11.8,7.1-3,10.2c1.5,0.5,3.1,0.9,4.7,1.1c18.9,2.6,37.1,2.7,54.5-0.2
			C86.3,29,86.3,21.6,74.4,20.4z"/>
		<path class="st27" d="M74.4,20.4H18.3c-10.8,1.1-11.8,7-3,10.1c1.5,0.5,3.1,0.9,4.7,1.1c18.8,2.6,37.1,2.7,54.5-0.2
			C86.2,28.9,86.3,21.5,74.4,20.4z"/>
		<path class="st28" d="M74.4,20.4H18.3c-10.8,1.1-11.8,7-3,10.1c1.5,0.5,3.1,0.9,4.7,1.1c18.8,2.6,37,2.7,54.5-0.2
			C86.2,28.9,86.3,21.5,74.4,20.4z"/>
		<path class="st28" d="M74.4,20.4H18.3c-10.8,1.1-11.8,7-3,10.1c1.5,0.5,3.1,0.9,4.7,1.1c18.8,2.6,37,2.7,54.4-0.2
			C86.2,28.9,86.3,21.5,74.4,20.4z"/>
		<path class="st29" d="M74.4,20.3H18.3c-10.8,1.1-11.7,7-3,10.1c1.5,0.5,3.1,0.9,4.7,1.1c18.8,2.6,37,2.7,54.4-0.2
			C86.2,28.8,86.3,21.5,74.4,20.3z"/>
		<path class="st30" d="M74.4,20.3H18.3c-10.8,1.1-11.7,7-3,10.1c1.5,0.5,3.1,0.9,4.7,1.1c18.8,2.6,37,2.7,54.4-0.2
			C86.2,28.8,86.3,21.5,74.4,20.3z"/>
		<path class="st31" d="M74.4,20.3H18.3c-10.8,1-11.7,7-3,10.1c1.5,0.5,3.1,0.9,4.7,1.1c18.8,2.6,37,2.7,54.4-0.2
			C86.2,28.8,86.2,21.5,74.4,20.3z"/>
		<path class="st31" d="M74.4,20.3h-56c-10.8,1-11.7,7-3,10c1.5,0.5,3.1,0.9,4.7,1.1c18.8,2.6,37,2.7,54.4-0.2
			C86.2,28.8,86.2,21.5,74.4,20.3z"/>
		<path class="st32" d="M74.4,20.3h-56c-10.8,1-11.7,7-3,10c1.5,0.5,3.1,0.9,4.7,1.1c18.8,2.6,37,2.7,54.3-0.2
			C86.2,28.7,86.2,21.5,74.4,20.3z"/>
		<path class="st33" d="M74.3,20.3h-56c-10.8,1-11.7,6.9-3,10c1.5,0.5,3.1,0.9,4.7,1.1c18.8,2.6,37,2.7,54.3-0.2
			C86.1,28.7,86.2,21.4,74.3,20.3z"/>
		<path class="st34" d="M74.3,20.3h-56c-10.7,1-11.7,6.9-3,10c1.5,0.5,3.1,0.9,4.7,1.1C38.8,33.9,57,34,74.3,31.1
			C86.1,28.7,86.2,21.4,74.3,20.3z"/>
		<path class="st35" d="M74.3,20.3h-56c-10.7,1-11.7,6.9-3,10c1.5,0.5,3.1,0.9,4.7,1.1C38.8,33.9,57,34,74.3,31.1
			C86.1,28.6,86.2,21.4,74.3,20.3z"/>
		<path class="st35" d="M74.3,20.3H18.4c-10.7,1-11.7,6.9-3,10c1.5,0.5,3.1,0.9,4.7,1.1C38.8,33.8,57,34,74.3,31.1
			C86.1,28.6,86.2,21.4,74.3,20.3z"/>
		<path class="st36" d="M74.3,20.2H18.4c-10.7,1-11.7,6.9-3,9.9c1.5,0.5,3.1,0.9,4.7,1.1C38.8,33.8,57,33.9,74.3,31
			C86.1,28.6,86.2,21.4,74.3,20.2z"/>
		<path class="st37" d="M74.3,20.2H18.4c-10.7,1-11.7,6.9-3,9.9c1.5,0.5,3.1,0.9,4.7,1.1C38.8,33.8,57,33.9,74.3,31
			C86.1,28.5,86.1,21.4,74.3,20.2z"/>
		<path class="st38" d="M74.3,20.2H18.4c-10.7,1-11.7,6.9-3,9.9c1.5,0.5,3.1,0.9,4.7,1.1C38.8,33.7,57,33.9,74.3,31
			C86.1,28.5,86.1,21.4,74.3,20.2z"/>
		<path class="st38" d="M74.3,20.2H18.4c-10.7,1-11.7,6.9-3,9.9c1.5,0.5,3.1,0.9,4.7,1.1c18.8,2.5,36.9,2.7,54.2-0.2
			C86.1,28.5,86.1,21.3,74.3,20.2z"/>
		<path class="st39" d="M74.3,20.2H18.4c-10.7,1-11.7,6.9-3,9.9c1.5,0.5,3.1,0.9,4.7,1.1c18.7,2.5,36.9,2.7,54.2-0.2
			C86,28.5,86.1,21.3,74.3,20.2z"/>
		<path class="st40" d="M74.3,20.2H18.4c-10.7,1-11.7,6.8-3,9.9c1.5,0.5,3.1,0.9,4.7,1.1c18.7,2.5,36.9,2.7,54.2-0.2
			C86,28.4,86.1,21.3,74.3,20.2z"/>
		<path class="st41" d="M74.2,20.2H18.4c-10.7,1-11.7,6.8-3,9.8c1.5,0.5,3.1,0.9,4.7,1.1c18.7,2.5,36.8,2.7,54.1-0.2
			C86,28.4,86.1,21.3,74.2,20.2z"/>
		<path class="st42" d="M74.2,20.2H18.4c-10.7,1-11.7,6.8-3,9.8c1.5,0.5,3.1,0.9,4.7,1.1c18.7,2.5,36.8,2.7,54.1-0.2
			C86,28.4,86.1,21.3,74.2,20.2z"/>
		<path class="st42" d="M74.2,20.1H18.5c-10.7,1-11.7,6.8-3,9.8c1.5,0.5,3.1,0.9,4.7,1.1c18.7,2.5,36.8,2.7,54.1-0.2
			C86,28.3,86,21.3,74.2,20.1z"/>
		<path class="st43" d="M74.2,20.1H18.5c-10.7,1-11.7,6.8-3,9.8c1.5,0.5,3.1,0.8,4.7,1.1c18.7,2.5,36.8,2.6,54.1-0.2
			C86,28.3,86,21.3,74.2,20.1z"/>
		<path class="st44" d="M74.2,20.1H18.5c-10.7,1-11.7,6.8-3,9.8c1.5,0.5,3.1,0.8,4.7,1.1c18.7,2.5,36.8,2.6,54.1-0.2
			C86,28.3,86,21.2,74.2,20.1z"/>
		<path class="st45" d="M74.2,20.1H18.5c-10.7,1-11.7,6.8-3,9.7c1.5,0.5,3.1,0.8,4.7,1.1c18.7,2.5,36.8,2.6,54.1-0.2
			C85.9,28.3,86,21.2,74.2,20.1z"/>
		<path class="st45" d="M74.2,20.1H18.5c-10.7,1-11.7,6.8-3,9.7c1.5,0.5,3.1,0.8,4.7,1.1c18.7,2.5,36.8,2.6,54-0.2
			C85.9,28.2,86,21.2,74.2,20.1z"/>
		<path class="st46" d="M74.2,20.1H18.5c-10.7,1-11.7,6.7-3,9.7c1.5,0.5,3.1,0.8,4.7,1.1c18.7,2.5,36.8,2.6,54-0.2
			C85.9,28.2,86,21.2,74.2,20.1z"/>
		<path class="st46" d="M74.2,20.1H18.5c-10.7,1-11.7,6.7-3,9.7c1.5,0.5,3.1,0.8,4.7,1.1c18.7,2.5,36.7,2.6,54-0.2
			C85.9,28.2,86,21.2,74.2,20.1z"/>
		<path class="st47" d="M74.2,20.1H18.5c-10.7,1-11.7,6.7-3,9.7c1.5,0.5,3.1,0.8,4.7,1c18.7,2.5,36.7,2.6,54-0.2
			C85.9,28.1,86,21.2,74.2,20.1z"/>
		<path class="st48" d="M74.2,20H18.5c-10.7,1-11.6,6.7-3,9.7c1.5,0.5,3.1,0.8,4.7,1c18.7,2.5,36.7,2.6,54-0.2
			C85.9,28.1,85.9,21.2,74.2,20z"/>
		<path class="st49" d="M74.1,20H18.5c-10.7,1-11.6,6.7-3,9.6c1.5,0.5,3.1,0.8,4.7,1c18.7,2.5,36.7,2.6,53.9-0.2
			C85.9,28.1,85.9,21.1,74.1,20z"/>
		<path class="st49" d="M74.1,20H18.5c-10.7,1-11.6,6.7-3,9.6c1.5,0.5,3.1,0.8,4.7,1c18.7,2.5,36.7,2.6,53.9-0.2
			C85.9,28,85.9,21.1,74.1,20z"/>
		<path class="st50" d="M74.1,20H18.6c-10.7,1-11.6,6.7-3,9.6c1.5,0.5,3.1,0.8,4.7,1c18.7,2.5,36.7,2.6,53.9-0.2
			C85.8,28,85.9,21.1,74.1,20z"/>
		<path class="st50" d="M74.1,20H18.6c-10.7,1-11.6,6.7-3,9.6c1.5,0.5,3.1,0.8,4.6,1c18.6,2.5,36.7,2.6,53.9-0.2
			C85.8,28,85.9,21.1,74.1,20z"/>
		<path class="st51" d="M74.1,20H18.6c-10.7,1-11.6,6.6-3,9.6c1.5,0.5,3.1,0.8,4.6,1c18.6,2.5,36.7,2.6,53.9-0.2
			C85.8,28,85.9,21.1,74.1,20z"/>
		<path class="st52" d="M74.1,20H18.6c-10.7,1-11.6,6.6-3,9.6c1.5,0.5,3.1,0.8,4.6,1c18.6,2.5,36.6,2.6,53.9-0.2
			C85.8,27.9,85.9,21.1,74.1,20z"/>
		<path class="st52" d="M74.1,20H18.6c-10.7,1-11.6,6.6-3,9.5c1.5,0.5,3.1,0.8,4.6,1c18.6,2.4,36.6,2.6,53.8-0.2
			C85.8,27.9,85.8,21.1,74.1,20z"/>
		<path class="st53" d="M74.1,20H18.6c-10.7,1-11.6,6.6-3,9.5c1.5,0.5,3.1,0.8,4.6,1c18.6,2.4,36.6,2.6,53.8-0.2
			C85.8,27.9,85.8,21,74.1,20z"/>
		<path class="st54" d="M74.1,19.9H18.6c-10.6,1-11.6,6.6-3,9.5c1.5,0.5,3.1,0.8,4.6,1c18.6,2.4,36.6,2.6,53.8-0.2
			C85.8,27.8,85.8,21,74.1,19.9z"/>
		<path class="st55" d="M74.1,19.9H18.6c-10.6,1-11.6,6.6-3,9.5c1.5,0.5,3.1,0.8,4.6,1c18.6,2.4,36.6,2.6,53.8-0.2
			C85.8,27.8,85.8,21,74.1,19.9z"/>
		<path class="st55" d="M74.1,19.9H18.6c-10.6,1-11.6,6.6-3,9.5c1.5,0.5,3.1,0.8,4.6,1c18.6,2.4,36.6,2.6,53.8-0.2
			C85.7,27.8,85.8,21,74.1,19.9z"/>
		<path class="st56" d="M74,19.9H18.6c-10.6,1-11.6,6.6-3,9.5c1.5,0.5,3.1,0.8,4.6,1c18.6,2.4,36.6,2.6,53.7-0.2
			C85.7,27.7,85.8,21,74,19.9z"/>
		<path class="st57" d="M74,19.9H18.6c-10.6,1-11.6,6.6-3,9.4c1.5,0.5,3.1,0.8,4.6,1c18.6,2.4,36.6,2.6,53.7-0.2
			C85.7,27.7,85.8,21,74,19.9z"/>
		<path class="st58" d="M74,19.9H18.7c-10.6,1-11.6,6.5-3,9.4c1.5,0.5,3.1,0.8,4.6,1c18.6,2.4,36.5,2.5,53.7-0.2
			C85.7,27.7,85.8,21,74,19.9z"/>
		<path class="st58" d="M74,19.9H18.7c-10.6,1-11.6,6.5-3,9.4c1.5,0.5,3.1,0.8,4.6,1c18.6,2.4,36.5,2.5,53.7-0.2
			C85.7,27.7,85.7,21,74,19.9z"/>
		<path class="st59" d="M74,19.9H18.7c-10.6,1-11.6,6.5-3,9.4c1.5,0.5,3.1,0.8,4.6,1C38.9,32.7,56.8,32.8,74,30
			C85.7,27.6,85.7,20.9,74,19.9z"/>
		<path class="st59" d="M74,19.8H18.7c-10.6,1-11.6,6.5-3,9.4c1.5,0.5,3.1,0.8,4.6,1C38.9,32.6,56.8,32.8,74,30
			C85.7,27.6,85.7,20.9,74,19.8z"/>
		<path class="st59" d="M74,19.8H18.7c-10.6,1-11.6,6.5-3,9.4c1.5,0.5,3.1,0.8,4.6,1C38.9,32.6,56.8,32.7,74,30
			C85.7,27.6,85.7,20.9,74,19.8z"/>
		<path class="st60" d="M74,19.8H18.7c-10.6,1-11.6,6.5-3,9.3c1.5,0.5,3.1,0.8,4.6,1c18.6,2.4,36.5,2.5,53.6-0.2
			C85.6,27.5,85.7,20.9,74,19.8z"/>
		<path class="st60" d="M74,19.8H18.7c-10.6,1-11.6,6.5-3,9.3c1.5,0.5,3.1,0.8,4.6,1c18.5,2.4,36.5,2.5,53.6-0.2
			C85.6,27.5,85.7,20.9,74,19.8z"/>
		<path class="st61" d="M74,19.8H18.7c-10.6,1-11.6,6.5-3,9.3c1.5,0.5,3.1,0.8,4.6,1c18.5,2.4,36.5,2.5,53.6-0.2
			C85.6,27.5,85.7,20.9,74,19.8z"/>
		<path class="st61" d="M73.9,19.8H18.7c-10.6,1-11.6,6.4-3,9.3c1.5,0.5,3.1,0.8,4.6,1c18.5,2.4,36.4,2.5,53.6-0.2
			C85.6,27.5,85.6,20.9,73.9,19.8z"/>
		<path class="st62" d="M73.9,19.8H18.7c-10.6,1-11.6,6.4-3,9.3c1.5,0.5,3.1,0.8,4.6,1c18.5,2.4,36.4,2.5,53.5-0.2
			C85.6,27.4,85.6,20.8,73.9,19.8z"/>
		<path class="st62" d="M73.9,19.8H18.8c-10.6,1-11.6,6.4-3,9.2c1.5,0.5,3.1,0.8,4.6,1c18.5,2.4,36.4,2.5,53.5-0.2
			C85.6,27.4,85.6,20.8,73.9,19.8z"/>
		<path class="st62" d="M73.9,19.7H18.8c-10.6,1-11.6,6.4-3,9.2c1.5,0.5,3.1,0.8,4.6,1c18.5,2.4,36.4,2.5,53.5-0.2
			C85.6,27.4,85.6,20.8,73.9,19.7z"/>
		<path class="st63" d="M73.9,19.7H18.8c-10.6,1-11.5,6.4-3,9.2c1.5,0.5,3.1,0.8,4.6,1c18.5,2.4,36.4,2.5,53.5-0.2
			C85.5,27.3,85.6,20.8,73.9,19.7z"/>
		<path class="st63" d="M73.9,19.7H18.8c-10.6,1-11.5,6.4-3,9.2c1.5,0.5,3.1,0.8,4.6,1c18.5,2.4,36.4,2.5,53.5-0.2
			C85.5,27.3,85.6,20.8,73.9,19.7z"/>
		<path class="st64" d="M73.9,19.7H18.8c-10.6,1-11.5,6.4-3,9.2c1.5,0.5,3.1,0.8,4.6,1c18.5,2.4,36.4,2.5,53.5-0.2
			C85.5,27.3,85.6,20.8,73.9,19.7z"/>
		<path class="st65" d="M73.9,19.7H18.8c-10.6,1-11.5,6.4-3,9.2c1.5,0.5,3.1,0.8,4.6,1c18.5,2.4,36.4,2.5,53.4-0.2
			C85.5,27.2,85.6,20.8,73.9,19.7z"/>
		<path class="st66" d="M73.9,19.7H18.8c-10.6,1-11.5,6.3-3,9.1c1.5,0.5,3.1,0.8,4.6,1c18.5,2.3,36.3,2.5,53.4-0.2
			C85.5,27.2,85.5,20.7,73.9,19.7z"/>
		<path class="st66" d="M73.9,19.7h-55c-10.6,1-11.5,6.3-3,9.1c1.5,0.5,3.1,0.8,4.6,1c18.5,2.3,36.3,2.5,53.4-0.2
			C85.5,27.2,85.5,20.7,73.9,19.7z"/>
		<path class="st67" d="M73.9,19.7h-55c-10.6,0.9-11.5,6.3-3,9.1c1.5,0.5,3.1,0.8,4.6,1c18.5,2.3,36.3,2.5,53.4-0.2
			C85.5,27.2,85.5,20.7,73.9,19.7z"/>
		<path class="st68" d="M73.8,19.7h-55c-10.6,0.9-11.5,6.3-3,9.1c1.5,0.5,3,0.8,4.6,1c18.5,2.3,36.3,2.5,53.4-0.2
			C85.5,27.1,85.5,20.7,73.8,19.7z"/>
		<path class="st67" d="M73.8,19.7H18.9c-10.5,0.9-11.5,6.3-3,9.1c1.5,0.5,3,0.8,4.6,1C39,32,56.8,32.2,73.8,29.5
			C85.4,27.1,85.4,20.7,73.8,19.7z"/>
		<path class="st66" d="M73.7,19.7H19c-10.5,0.9-11.5,6.3-2.9,9c1.5,0.5,3,0.8,4.6,1C39,32,56.7,32.1,73.7,29.5
			C85.3,27.1,85.3,20.7,73.7,19.7z"/>
		<path class="st66" d="M73.7,19.7H19c-10.5,0.9-11.4,6.3-2.9,9c1.5,0.5,3,0.8,4.6,1c18.3,2.3,36.1,2.4,53-0.2
			C85.2,27.1,85.3,20.7,73.7,19.7z"/>
		<path class="st65" d="M73.6,19.7H19.1c-10.5,0.9-11.4,6.2-2.9,9c1.5,0.5,3,0.8,4.6,1c18.3,2.3,36,2.4,52.9-0.2
			C85.1,27,85.2,20.7,73.6,19.7z"/>
		<path class="st64" d="M73.6,19.7H19.1c-10.5,0.9-11.4,6.2-2.9,9c1.5,0.5,3,0.8,4.6,1C39,31.9,56.7,32,73.6,29.4
			C85.1,27,85.1,20.7,73.6,19.7z"/>
		<path class="st63" d="M73.5,19.7H19.2c-10.4,0.9-11.4,6.2-2.9,8.9c1.5,0.5,3,0.8,4.5,1C39,31.8,56.7,32,73.5,29.3
			C85,27,85,20.7,73.5,19.7z"/>
		<path class="st63" d="M73.4,19.7H19.2c-10.4,0.9-11.4,6.2-2.9,8.9c1.5,0.5,3,0.8,4.5,1c18.2,2.3,35.8,2.4,52.6-0.2
			C84.9,27,84.9,20.7,73.4,19.7z"/>
		<path class="st62" d="M73.4,19.7H19.3C8.9,20.6,8,25.8,16.4,28.5c1.5,0.5,3,0.8,4.5,1c18.2,2.3,35.7,2.4,52.5-0.2
			C84.8,26.9,84.9,20.7,73.4,19.7z"/>
		<path class="st62" d="M73.3,19.7h-54C9,20.6,8,25.8,16.4,28.5c1.5,0.5,3,0.8,4.5,1c18.1,2.3,35.6,2.4,52.4-0.2
			C84.7,26.9,84.8,20.7,73.3,19.7z"/>
		<path class="st62" d="M73.3,19.7H19.4c-10.3,0.9-11.3,6.1-2.9,8.8c1.5,0.5,3,0.8,4.5,1c18.1,2.3,35.6,2.4,52.3-0.2
			C84.7,26.9,84.7,20.7,73.3,19.7z"/>
		<path class="st61" d="M73.2,19.7H19.5c-10.3,0.9-11.3,6.1-2.9,8.8c1.5,0.5,3,0.8,4.5,1c18,2.3,35.5,2.4,52.2-0.2
			C84.6,26.9,84.6,20.7,73.2,19.7z"/>
		<path class="st61" d="M73.2,19.7H19.5c-10.3,0.9-11.2,6.1-2.9,8.8c1.5,0.5,3,0.8,4.5,0.9c18,2.2,35.4,2.4,52.1-0.2
			C84.5,26.9,84.5,20.7,73.2,19.7z"/>
		<path class="st60" d="M73.1,19.7H19.6c-10.3,0.9-11.2,6.1-2.9,8.7c1.5,0.5,3,0.8,4.5,0.9c18,2.2,35.3,2.4,51.9-0.2
			C84.4,26.8,84.5,20.7,73.1,19.7z"/>
		<path class="st60" d="M73.1,19.7H19.6c-10.3,0.9-11.2,6-2.9,8.7c1.5,0.5,3,0.8,4.5,0.9c17.9,2.2,35.3,2.4,51.8-0.2
			C84.3,26.8,84.4,20.7,73.1,19.7z"/>
		<path class="st59" d="M73,19.7H19.7c-10.2,0.9-11.2,6-2.9,8.7c1.5,0.5,3,0.8,4.5,0.9c17.9,2.2,35.2,2.3,51.7-0.2
			C84.3,26.8,84.3,20.7,73,19.7z"/>
		<path class="st59" d="M72.9,19.7H19.7c-10.2,0.9-11.1,6-2.9,8.7c1.5,0.5,2.9,0.8,4.5,0.9c17.9,2.2,35.1,2.3,51.6-0.2
			C84.2,26.8,84.2,20.6,72.9,19.7z"/>
		<path class="st59" d="M72.9,19.7H19.8c-10.2,0.9-11.1,6-2.9,8.6c1.4,0.5,2.9,0.7,4.4,0.9c17.8,2.2,35,2.3,51.5-0.2
			C84.1,26.7,84.1,20.6,72.9,19.7z"/>
		<path class="st58" d="M72.8,19.7h-53c-10.2,0.9-11.1,6-2.9,8.6c1.4,0.5,2.9,0.7,4.4,0.9c17.8,2.2,35,2.3,51.4-0.2
			C84,26.7,84.1,20.6,72.8,19.7z"/>
		<path class="st58" d="M72.8,19.7H19.9c-10.2,0.9-11.1,5.9-2.8,8.6c1.4,0.5,2.9,0.7,4.4,0.9c17.7,2.2,34.9,2.3,51.3-0.2
			C83.9,26.7,84,20.6,72.8,19.7z"/>
		<path class="st57" d="M72.7,19.7H20c-10.1,0.9-11,5.9-2.8,8.5c1.4,0.5,2.9,0.7,4.4,0.9c17.7,2.2,34.8,2.3,51.2-0.2
			C83.9,26.7,83.9,20.6,72.7,19.7z"/>
		<path class="st56" d="M72.7,19.7H20c-10.1,0.9-11,5.9-2.8,8.5c1.4,0.5,2.9,0.7,4.4,0.9c17.7,2.2,34.7,2.3,51.1-0.2
			C83.8,26.6,83.8,20.6,72.7,19.7z"/>
		<path class="st55" d="M72.6,19.7H20.1c-10.1,0.9-11,5.9-2.8,8.5c1.4,0.5,2.9,0.7,4.4,0.9c17.6,2.2,34.7,2.3,51-0.2
			C83.7,26.6,83.7,20.6,72.6,19.7z"/>
		<path class="st55" d="M72.5,19.7H20.1c-10.1,0.9-11,5.9-2.8,8.5c1.4,0.5,2.9,0.7,4.4,0.9c17.6,2.2,34.6,2.3,50.8-0.2
			C83.6,26.6,83.7,20.6,72.5,19.7z"/>
		<path class="st54" d="M72.5,19.7H20.2c-10,0.9-11,5.9-2.8,8.4c1.4,0.5,2.9,0.7,4.4,0.9c17.6,2.2,34.5,2.3,50.7-0.2
			C83.5,26.6,83.6,20.6,72.5,19.7z"/>
		<path class="st53" d="M72.4,19.7H20.2c-10,0.9-10.9,5.8-2.8,8.4c1.4,0.5,2.9,0.7,4.4,0.9c17.5,2.2,34.4,2.3,50.6-0.2
			C83.5,26.6,83.5,20.6,72.4,19.7z"/>
		<path class="st52" d="M72.4,19.7H20.3c-10,0.9-10.9,5.8-2.8,8.4c1.4,0.4,2.9,0.7,4.4,0.9c17.5,2.1,34.4,2.3,50.5-0.2
			C83.4,26.5,83.4,20.6,72.4,19.7z"/>
		<path class="st52" d="M72.3,19.7h-52c-10,0.9-10.9,5.8-2.8,8.3c1.4,0.4,2.9,0.7,4.3,0.9c17.4,2.1,34.3,2.3,50.4-0.2
			C83.3,26.5,83.3,20.6,72.3,19.7z"/>
		<path class="st51" d="M72.3,19.7H20.4c-10,0.9-10.9,5.8-2.8,8.3c1.4,0.4,2.9,0.7,4.3,0.9c17.4,2.1,34.2,2.2,50.3-0.2
			C83.2,26.5,83.2,20.6,72.3,19.7z"/>
		<path class="st50" d="M72.2,19.7H20.5c-9.9,0.9-10.8,5.8-2.8,8.3c1.4,0.4,2.9,0.7,4.3,0.9c17.4,2.1,34.1,2.2,50.2-0.2
			C83.1,26.5,83.2,20.6,72.2,19.7z"/>
		<path class="st50" d="M72.2,19.7H20.5c-9.9,0.9-10.8,5.7-2.8,8.3c1.4,0.4,2.9,0.7,4.3,0.9c17.3,2.1,34.1,2.2,50.1-0.2
			C83.1,26.4,83.1,20.6,72.2,19.7z"/>
		<path class="st49" d="M72.1,19.7H20.6c-9.9,0.9-10.8,5.7-2.8,8.2c1.4,0.4,2.9,0.7,4.3,0.9c17.3,2.1,34,2.2,50-0.2
			C83,26.4,83,20.6,72.1,19.7z"/>
		<path class="st49" d="M72,19.7H20.6c-9.9,0.9-10.8,5.7-2.8,8.2c1.4,0.4,2.8,0.7,4.3,0.9C39.4,30.9,56.1,31,72,28.6
			C82.9,26.4,82.9,20.6,72,19.7z"/>
		<path class="st48" d="M72,19.7H20.7c-9.8,0.9-10.7,5.7-2.8,8.2c1.4,0.4,2.8,0.7,4.3,0.9c17.2,2.1,33.8,2.2,49.8-0.2
			C82.8,26.4,82.8,20.6,72,19.7z"/>
		<path class="st47" d="M71.9,19.7H20.8c-9.8,0.8-10.7,5.7-2.8,8.2c1.4,0.4,2.8,0.7,4.3,0.9c17.2,2.1,33.8,2.2,49.6-0.2
			C82.7,26.4,82.8,20.6,71.9,19.7z"/>
		<path class="st46" d="M71.9,19.7H20.8c-9.8,0.8-10.7,5.6-2.7,8.1c1.4,0.4,2.8,0.7,4.3,0.9c17.1,2.1,33.7,2.2,49.5-0.2
			C82.6,26.3,82.7,20.6,71.9,19.7z"/>
		<path class="st46" d="M71.8,19.7H20.9c-9.8,0.8-10.7,5.6-2.7,8.1c1.4,0.4,2.8,0.7,4.3,0.9c17.1,2.1,33.6,2.2,49.4-0.2
			C82.6,26.3,82.6,20.6,71.8,19.7z"/>
		<path class="st45" d="M71.8,19.7H20.9c-9.8,0.8-10.6,5.6-2.7,8.1c1.4,0.4,2.8,0.7,4.3,0.9c17.1,2.1,33.5,2.2,49.3-0.2
			C82.5,26.3,82.5,20.6,71.8,19.7z"/>
		<path class="st45" d="M71.7,19.7H21c-9.7,0.8-10.6,5.6-2.7,8c1.4,0.4,2.8,0.7,4.2,0.9c17,2.1,33.5,2.2,49.2-0.2
			C82.4,26.3,82.4,20.6,71.7,19.7z"/>
		<path class="st44" d="M71.6,19.7H21c-9.7,0.8-10.6,5.6-2.7,8c1.4,0.4,2.8,0.7,4.2,0.9c17,2.1,33.4,2.2,49.1-0.2
			C82.3,26.2,82.4,20.6,71.6,19.7z"/>
		<path class="st43" d="M71.6,19.7H21.1c-9.7,0.8-10.6,5.5-2.7,8c1.4,0.4,2.8,0.7,4.2,0.9c16.9,2,33.3,2.2,49-0.2
			C82.2,26.2,82.3,20.6,71.6,19.7z"/>
		<path class="st42" d="M71.5,19.7H21.2c-9.7,0.8-10.5,5.5-2.7,8c1.4,0.4,2.8,0.7,4.2,0.9c16.9,2,33.3,2.2,48.9-0.2
			C82.2,26.2,82.2,20.6,71.5,19.7z"/>
		<path class="st42" d="M71.5,19.7H21.2c-9.7,0.8-10.5,5.5-2.7,7.9c1.4,0.4,2.8,0.7,4.2,0.9c16.9,2,33.2,2.1,48.8-0.2
			C82.1,26.2,82.1,20.6,71.5,19.7z"/>
		<path class="st41" d="M71.4,19.7H21.3c-9.6,0.8-10.5,5.5-2.7,7.9c1.4,0.4,2.8,0.7,4.2,0.9c16.8,2,33.1,2.1,48.7-0.2
			C82,26.1,82,20.6,71.4,19.7z"/>
		<path class="st40" d="M71.4,19.7h-50c-9.6,0.8-10.5,5.5-2.7,7.9c1.4,0.4,2.8,0.7,4.2,0.9c16.8,2,33,2.1,48.5-0.2
			C81.9,26.1,82,20.6,71.4,19.7z"/>
		<path class="st39" d="M71.3,19.7H21.4c-9.6,0.8-10.5,5.4-2.7,7.8c1.4,0.4,2.8,0.7,4.2,0.9c16.8,2,33,2.1,48.4-0.2
			C81.8,26.1,81.9,20.6,71.3,19.7z"/>
		<path class="st38" d="M71.2,19.7H21.4c-9.6,0.8-10.4,5.4-2.7,7.8c1.4,0.4,2.8,0.7,4.2,0.8c16.7,2,32.9,2.1,48.3-0.2
			C81.8,26.1,81.8,20.6,71.2,19.7z"/>
		<path class="st38" d="M71.2,19.7H21.5c-9.5,0.8-10.4,5.4-2.7,7.8c1.4,0.4,2.8,0.7,4.2,0.8c16.7,2,32.8,2.1,48.2-0.2
			C81.7,26.1,81.7,20.6,71.2,19.7z"/>
		<path class="st37" d="M71.1,19.7H21.5c-9.5,0.8-10.4,5.4-2.7,7.8c1.4,0.4,2.7,0.7,4.2,0.8c16.6,2,32.7,2.1,48.1-0.2
			C81.6,26,81.6,20.5,71.1,19.7z"/>
		<path class="st36" d="M71.1,19.7H21.6c-9.5,0.8-10.4,5.4-2.7,7.7c1.3,0.4,2.7,0.7,4.1,0.8c16.6,2,32.7,2.1,48-0.2
			C81.5,26,81.6,20.5,71.1,19.7z"/>
		<path class="st35" d="M71,19.7H21.7c-9.5,0.8-10.3,5.4-2.7,7.7c1.3,0.4,2.7,0.7,4.1,0.8c16.6,2,32.6,2.1,47.9-0.2
			C81.4,26,81.5,20.5,71,19.7z"/>
		<path class="st35" d="M71,19.7H21.7c-9.5,0.8-10.3,5.3-2.7,7.7c1.3,0.4,2.7,0.7,4.1,0.8c16.5,2,32.5,2.1,47.8-0.2
			C81.4,26,81.4,20.5,71,19.7z"/>
		<path class="st34" d="M70.9,19.7H21.8c-9.4,0.8-10.3,5.3-2.6,7.7c1.3,0.4,2.7,0.7,4.1,0.8c16.5,2,32.4,2.1,47.7-0.2
			C81.3,25.9,81.3,20.5,70.9,19.7z"/>
		<path class="st33" d="M70.9,19.7h-49c-9.4,0.8-10.3,5.3-2.6,7.6c1.3,0.4,2.7,0.7,4.1,0.8c16.5,2,32.4,2.1,47.6-0.2
			C81.2,25.9,81.2,20.5,70.9,19.7z"/>
		<path class="st32" d="M70.8,19.7H21.9c-9.4,0.8-10.2,5.3-2.6,7.6c1.3,0.4,2.7,0.7,4.1,0.8c16.4,1.9,32.3,2.1,47.5-0.2
			C81.1,25.9,81.2,20.5,70.8,19.7z"/>
		<path class="st31" d="M70.7,19.7H21.9c-9.4,0.8-10.2,5.3-2.6,7.6c1.3,0.4,2.7,0.7,4.1,0.8c16.4,1.9,32.2,2,47.3-0.2
			C81,25.9,81.1,20.5,70.7,19.7z"/>
		<path class="st31" d="M70.7,19.7H22c-9.3,0.8-10.2,5.2-2.6,7.5c1.3,0.4,2.7,0.7,4.1,0.8c16.3,1.9,32.1,2,47.2-0.2
			C81,25.9,81,20.5,70.7,19.7z"/>
		<path class="st30" d="M70.6,19.7H22.1c-9.3,0.8-10.2,5.2-2.6,7.5c1.3,0.4,2.7,0.7,4.1,0.8c16.3,1.9,32.1,2,47.1-0.2
			C80.9,25.8,80.9,20.5,70.6,19.7z"/>
		<path class="st29" d="M70.6,19.7H22.1c-9.3,0.8-10.1,5.2-2.6,7.5c1.3,0.4,2.7,0.6,4.1,0.8c16.3,1.9,32,2,47-0.2
			C80.8,25.8,80.8,20.5,70.6,19.7z"/>
		<path class="st28" d="M70.5,19.7H22.2c-9.3,0.8-10.1,5.2-2.6,7.5c1.3,0.4,2.7,0.6,4,0.8c16.2,1.9,31.9,2,46.9-0.2
			C80.7,25.8,80.8,20.5,70.5,19.7z"/>
		<path class="st28" d="M70.5,19.7H22.2c-9.3,0.8-10.1,5.2-2.6,7.4c1.3,0.4,2.7,0.6,4,0.8c16.2,1.9,31.8,2,46.8-0.2
			C80.6,25.8,80.7,20.5,70.5,19.7z"/>
		<path class="st27" d="M70.4,19.7H22.3c-9.2,0.8-10.1,5.1-2.6,7.4c1.3,0.4,2.7,0.6,4,0.8c16.2,1.9,31.8,2,46.7-0.2
			C80.6,25.7,80.6,20.5,70.4,19.7z"/>
		<path class="st27" d="M70.3,19.7h-48c-9.2,0.8-10.1,5.1-2.6,7.4c1.3,0.4,2.7,0.6,4,0.8c16.1,1.9,31.7,2,46.6-0.2
			C80.5,25.7,80.5,20.5,70.3,19.7z"/>
		<path class="st26" d="M70.3,19.7H22.4c-9.2,0.8-10,5.1-2.6,7.3c1.3,0.4,2.7,0.6,4,0.8c16.1,1.9,31.6,2,46.5-0.2
			C80.4,25.7,80.4,20.5,70.3,19.7z"/>
		<path class="st25" d="M70.2,19.7H22.5c-9.2,0.8-10,5.1-2.6,7.3c1.3,0.4,2.6,0.6,4,0.8c16,1.9,31.5,2,46.4-0.2
			C80.3,25.7,80.4,20.5,70.2,19.7z"/>
		<path class="st24" d="M70.2,19.7H22.5c-9.2,0.8-10,5.1-2.6,7.3c1.3,0.4,2.6,0.6,4,0.8c16,1.9,31.5,2,46.2-0.2
			C80.2,25.6,80.3,20.5,70.2,19.7z"/>
		<path class="st24" d="M70.1,19.7H22.6c-9.1,0.8-10,5-2.6,7.3c1.3,0.4,2.6,0.6,4,0.8c16,1.9,31.4,2,46.1-0.2
			C80.2,25.6,80.2,20.5,70.1,19.7z"/>
		<path class="st23" d="M70.1,19.7H22.6c-9.1,0.8-9.9,5-2.6,7.2c1.3,0.4,2.6,0.6,4,0.8c15.9,1.9,31.3,2,46-0.2
			C80.1,25.6,80.1,20.5,70.1,19.7z"/>
		<path class="st23" d="M70,19.7H22.7c-9.1,0.8-9.9,5-2.5,7.2c1.3,0.4,2.6,0.6,4,0.8c15.9,1.9,31.2,2,45.9-0.2
			C80,25.6,80,20.5,70,19.7z"/>
		<path class="st22" d="M69.9,19.7H22.7c-9.1,0.7-9.9,5-2.5,7.2c1.3,0.4,2.6,0.6,4,0.8c15.8,1.8,31.2,1.9,45.8-0.2
			C79.9,25.6,80,20.5,69.9,19.7z"/>
		<path class="st21" d="M69.9,19.7H22.8c-9,0.7-9.9,5-2.5,7.2c1.3,0.4,2.6,0.6,3.9,0.8c15.8,1.8,31.1,1.9,45.7-0.2
			C79.8,25.5,79.9,20.5,69.9,19.7z"/>
		<path class="st20" d="M69.8,19.7h-47c-9,0.7-9.8,4.9-2.5,7.1c1.3,0.4,2.6,0.6,3.9,0.8c15.8,1.8,31,1.9,45.6-0.2
			C79.8,25.5,79.8,20.5,69.8,19.7z"/>
		<path class="st20" d="M69.8,19.7H22.9c-9,0.7-9.8,4.9-2.5,7.1c1.3,0.4,2.6,0.6,3.9,0.8c15.7,1.8,30.9,1.9,45.5-0.2
			C79.7,25.5,79.7,20.5,69.8,19.7z"/>
		<path class="st19" d="M69.7,19.7H23c-9,0.7-9.8,4.9-2.5,7.1c1.3,0.4,2.6,0.6,3.9,0.8c15.7,1.8,30.9,1.9,45.4-0.2
			C79.6,25.5,79.6,20.5,69.7,19.7z"/>
		<path class="st18" d="M69.7,19.7H23c-9,0.7-9.8,4.9-2.5,7c1.3,0.4,2.6,0.6,3.9,0.8c15.7,1.8,30.8,1.9,45.3-0.2
			C79.5,25.4,79.6,20.5,69.7,19.7z"/>
		<path class="st18" d="M69.6,19.7H23.1c-8.9,0.7-9.7,4.9-2.5,7c1.3,0.4,2.6,0.6,3.9,0.8c15.6,1.8,30.7,1.9,45.1-0.2
			C79.4,25.4,79.5,20.5,69.6,19.7z"/>
		<path class="st17" d="M69.6,19.7H23.1c-8.9,0.7-9.7,4.9-2.5,7c1.3,0.4,2.6,0.6,3.9,0.8c15.6,1.8,30.6,1.9,45-0.2
			C79.4,25.4,79.4,20.5,69.6,19.7z"/>
		<path class="st16" d="M69.5,19.7H23.2c-8.9,0.7-9.7,4.8-2.5,7c1.3,0.4,2.6,0.6,3.9,0.8c15.5,1.8,30.6,1.9,44.9-0.2
			C79.3,25.4,79.3,20.5,69.5,19.7z"/>
		<path class="st15" d="M69.4,19.7H23.2c-8.9,0.7-9.7,4.8-2.5,6.9c1.3,0.4,2.6,0.6,3.9,0.8c15.5,1.8,30.5,1.9,44.8-0.2
			C79.2,25.3,79.2,20.5,69.4,19.7z"/>
		<path class="st14" d="M69.4,19.7H23.3c-8.8,0.7-9.7,4.8-2.5,6.9c1.3,0.4,2.6,0.6,3.9,0.7c15.5,1.8,30.4,1.9,44.7-0.2
			C79.1,25.3,79.1,20.4,69.4,19.7z"/>
		<path class="st13" d="M69.3,19.7h-46c-8.8,0.7-9.6,4.8-2.5,6.9c1.3,0.4,2.5,0.6,3.8,0.7c15.4,1.8,30.3,1.9,44.6-0.2
			C79,25.3,79.1,20.4,69.3,19.7z"/>
		<path class="st13" d="M69.3,19.7H23.4c-8.8,0.7-9.6,4.8-2.5,6.9c1.3,0.4,2.5,0.6,3.8,0.7c15.4,1.8,30.3,1.9,44.5-0.2
			C79,25.3,79,20.4,69.3,19.7z"/>
		<path class="st12" d="M69.2,19.7H23.5c-8.8,0.7-9.6,4.7-2.5,6.8c1.2,0.4,2.5,0.6,3.8,0.7C40.2,29,55,29.1,69.2,27.1
			C78.9,25.3,78.9,20.4,69.2,19.7z"/>
		<path class="st12" d="M69.2,19.7H23.5c-8.8,0.7-9.6,4.7-2.5,6.8c1.2,0.4,2.5,0.6,3.8,0.7C40.2,28.9,55,29,69.2,27
			C78.8,25.2,78.8,20.4,69.2,19.7z"/>
		<path class="st11" d="M69.1,19.7H23.6c-8.7,0.7-9.5,4.7-2.5,6.8c1.2,0.4,2.5,0.6,3.8,0.7C40.2,28.9,55,29,69.1,27
			C78.7,25.2,78.7,20.4,69.1,19.7z"/>
		<path class="st10" d="M69,19.7H23.6c-8.7,0.7-9.5,4.7-2.4,6.7c1.2,0.4,2.5,0.6,3.8,0.7C40.2,28.9,55,28.9,69,27
			C78.6,25.2,78.7,20.4,69,19.7z"/>
		<path class="st10" d="M69,19.7H23.7c-8.7,0.7-9.5,4.7-2.4,6.7c1.2,0.4,2.5,0.6,3.8,0.7c15.2,1.7,29.9,1.8,43.9-0.2
			C78.6,25.2,78.6,20.4,69,19.7z"/>
		<path class="st9" d="M68.9,19.7H23.7c-8.7,0.7-9.5,4.6-2.4,6.7c1.2,0.4,2.5,0.6,3.8,0.7c15.2,1.7,29.8,1.8,43.8-0.2
			C78.5,25.1,78.5,20.4,68.9,19.7z"/>
		<path class="st9" d="M68.9,19.7H23.8c-8.7,0.7-9.4,4.6-2.4,6.7c1.2,0.4,2.5,0.6,3.8,0.7c15.1,1.7,29.7,1.8,43.7-0.2
			C78.4,25.1,78.4,20.4,68.9,19.7z"/>
		<path class="st8" d="M68.8,19.7h-45c-8.6,0.7-9.4,4.6-2.4,6.6c1.2,0.4,2.5,0.6,3.8,0.7c15.1,1.7,29.7,1.8,43.6-0.2
			C78.3,25.1,78.3,20.4,68.8,19.7z"/>
		<path class="st7" d="M68.8,19.7H23.9c-8.6,0.7-9.4,4.6-2.4,6.6c1.2,0.4,2.5,0.6,3.8,0.7c15.1,1.7,29.6,1.8,43.5-0.2
			C78.2,25.1,78.3,20.4,68.8,19.7z"/>
		<path class="st6" d="M68.7,19.7H24c-8.6,0.7-9.4,4.6-2.4,6.6c1.2,0.4,2.5,0.6,3.7,0.7c15,1.7,29.5,1.8,43.4-0.2
			C78.2,25.1,78.2,20.4,68.7,19.7z"/>
		<path class="st6" d="M68.7,19.7H24c-8.6,0.7-9.3,4.5-2.4,6.5c1.2,0.4,2.5,0.6,3.7,0.7c15,1.7,29.5,1.8,43.3-0.2
			C78.1,25,78.1,20.4,68.7,19.7z"/>
		<path class="st5" d="M68.6,19.7H24.1c-8.5,0.7-9.3,4.5-2.4,6.5c1.2,0.3,2.5,0.6,3.7,0.7c14.9,1.7,29.4,1.8,43.2-0.2
			C78,25,78,20.4,68.6,19.7z"/>
		<path class="st5" d="M68.5,19.7H24.1c-8.5,0.7-9.3,4.5-2.4,6.5c1.2,0.3,2.5,0.6,3.7,0.7c14.9,1.7,29.3,1.8,43.1-0.2
			C77.9,25,77.9,20.4,68.5,19.7z"/>
		<path class="st4" d="M68.5,19.7H24.2c-8.5,0.7-9.3,4.5-2.4,6.5c1.2,0.3,2.5,0.6,3.7,0.7c14.9,1.7,29.2,1.7,43-0.2
			C77.8,25,77.9,20.4,68.5,19.7z"/>
		<path class="st3" d="M68.4,19.7H24.3c-8.5,0.7-9.2,4.5-2.4,6.4c1.2,0.3,2.4,0.6,3.7,0.7c14.8,1.7,29.2,1.7,42.8-0.2
			C77.8,24.9,77.8,20.4,68.4,19.7z"/>
		<path class="st2" d="M68.4,19.7H24.3c-8.5,0.7-9.2,4.4-2.4,6.4c1.2,0.3,2.4,0.6,3.7,0.7c14.8,1.6,29.1,1.7,42.7-0.2
			C77.7,24.9,77.7,20.4,68.4,19.7z"/>
		<path class="st2" d="M68.3,19.7H24.4c-8.4,0.7-9.2,4.4-2.4,6.4c1.2,0.3,2.4,0.6,3.7,0.7c14.7,1.6,29,1.7,42.6-0.1
			C77.6,24.9,77.6,20.4,68.3,19.7z"/>
		<path class="st1" d="M68.3,19.7H24.4c-8.4,0.7-9.2,4.4-2.4,6.4c1.2,0.3,2.4,0.6,3.7,0.7c14.7,1.6,28.9,1.7,42.5-0.1
			C77.5,24.9,77.5,20.4,68.3,19.7z"/>
		<path class="st0" d="M68.2,19.7H24.5c-8.4,0.7-9.2,4.4-2.4,6.3c1.2,0.3,2.4,0.5,3.7,0.7c14.7,1.6,28.9,1.7,42.4-0.1
			C77.4,24.8,77.5,20.4,68.2,19.7z"/>
	</g>
	<linearGradient id="SVGID_1_" gradientUnits="userSpaceOnUse" x1="18.6623" y1="21.0293" x2="74.0656" y2="21.0293">
		<stop  offset="0" style="stop-color:#00254F"/>
		<stop  offset="0.7377" style="stop-color:#155391"/>
		<stop  offset="1" style="stop-color:#11467D"/>
	</linearGradient>
	<path class="st69" d="M18.7,15.9l0,6.1c0,5.5,55.4,5.5,55.4,0v-6.1H18.7z"/>
	<g>
		<path class="st68" d="M18.7,15.9c0-3.3,55.4-3.4,55.4,0C74.1,20.9,18.7,20.9,18.7,15.9z"/>
		<path class="st68" d="M18.7,15.9c0-3.3,55.3-3.4,55.3,0C74,20.9,18.7,20.9,18.7,15.9z"/>
		<path class="st70" d="M18.7,15.9c0-3.3,55.3-3.4,55.3,0C74,20.8,18.7,20.8,18.7,15.9z"/>
		<path class="st71" d="M18.8,15.9c0-3.3,55.2-3.3,55.2,0C74,20.8,18.8,20.8,18.8,15.9z"/>
		<path class="st72" d="M18.8,15.9c0-3.2,55.2-3.3,55.2,0C73.9,20.8,18.8,20.8,18.8,15.9z"/>
		<path class="st73" d="M18.8,15.9c0-3.2,55.1-3.3,55.1,0C73.9,20.7,18.8,20.7,18.8,15.9z"/>
		<path class="st74" d="M18.8,15.9c0-3.2,55-3.3,55,0C73.9,20.7,18.8,20.7,18.8,15.9z"/>
		<path class="st75" d="M18.9,15.9c0-3.2,55-3.3,55,0C73.9,20.6,18.9,20.6,18.9,15.9z"/>
		<path class="st75" d="M18.9,15.9c0-3.2,54.9-3.2,54.9,0C73.8,20.6,18.9,20.6,18.9,15.9z"/>
		<path class="st76" d="M18.9,15.9c0-3.1,54.9-3.2,54.9,0C73.8,20.6,18.9,20.6,18.9,15.9z"/>
		<path class="st77" d="M19,15.8c0-3.1,54.8-3.2,54.8,0C73.8,20.5,19,20.5,19,15.8z"/>
		<path class="st78" d="M19,15.8c0-3.1,54.7-3.2,54.7,0C73.7,20.5,19,20.5,19,15.8z"/>
		<path class="st78" d="M19,15.8c0-3.1,54.7-3.1,54.7,0C73.7,20.4,19,20.5,19,15.8z"/>
		<path class="st79" d="M19.1,15.8c0-3.1,54.6-3.1,54.6,0C73.7,20.4,19.1,20.4,19.1,15.8z"/>
		<path class="st80" d="M19.1,15.8c0-3,54.5-3.1,54.5,0C73.6,20.4,19.1,20.4,19.1,15.8z"/>
		<path class="st80" d="M19.1,15.8c0-3,54.5-3.1,54.5,0C73.6,20.3,19.1,20.3,19.1,15.8z"/>
		<path class="st81" d="M19.2,15.8c0-3,54.4-3.1,54.4,0C73.6,20.3,19.2,20.3,19.2,15.8z"/>
		<path class="st81" d="M19.2,15.8c0-3,54.4-3,54.4,0C73.5,20.3,19.2,20.3,19.2,15.8z"/>
		<path class="st82" d="M19.2,15.8c0-3,54.3-3,54.3,0C73.5,20.2,19.2,20.2,19.2,15.8z"/>
		<path class="st82" d="M19.2,15.8c0-2.9,54.2-3,54.2,0C73.5,20.2,19.2,20.2,19.2,15.8z"/>
		<path class="st83" d="M19.3,15.8c0-2.9,54.2-3,54.2,0C73.5,20.1,19.3,20.2,19.3,15.8z"/>
		<path class="st84" d="M19.3,15.8c0-2.9,54.1-3,54.1,0C73.4,20.1,19.3,20.1,19.3,15.8z"/>
		<path class="st84" d="M19.3,15.8c0-2.9,54.1-2.9,54.1,0C73.4,20.1,19.3,20.1,19.3,15.8z"/>
		<path class="st85" d="M19.4,15.8c0-2.8,54-2.9,54,0C73.4,20,19.4,20,19.4,15.8z"/>
		<path class="st85" d="M19.4,15.8c0-2.8,53.9-2.9,53.9,0C73.3,20,19.4,20,19.4,15.8z"/>
		<path class="st86" d="M19.4,15.7c0-2.8,53.9-2.9,53.9,0C73.3,20,19.4,20,19.4,15.7z"/>
		<path class="st86" d="M19.5,15.7c0-2.8,53.8-2.8,53.8,0C73.3,19.9,19.5,19.9,19.5,15.7z"/>
		<path class="st86" d="M19.5,15.7c0-2.8,53.8-2.8,53.7,0C73.2,19.9,19.5,19.9,19.5,15.7z"/>
		<path class="st87" d="M19.5,15.7c0-2.7,53.7-2.8,53.7,0C73.2,19.8,19.5,19.8,19.5,15.7z"/>
		<path class="st88" d="M19.6,15.7c0-2.7,53.6-2.8,53.6,0C73.2,19.8,19.6,19.8,19.6,15.7z"/>
		<path class="st89" d="M19.6,15.7c0-2.7,53.6-2.8,53.6,0C73.1,19.8,19.6,19.8,19.6,15.7z"/>
		<path class="st89" d="M19.6,15.7c0-2.7,53.5-2.7,53.5,0C73.1,19.7,19.6,19.7,19.6,15.7z"/>
		<path class="st90" d="M19.6,15.7c0-2.7,53.4-2.7,53.4,0C73.1,19.7,19.6,19.7,19.6,15.7z"/>
		<path class="st90" d="M19.7,15.7c0-2.6,53.4-2.7,53.4,0C73.1,19.7,19.7,19.7,19.7,15.7z"/>
		<path class="st90" d="M19.7,15.7c0-2.6,53.3-2.7,53.3,0C73,19.6,19.7,19.6,19.7,15.7z"/>
		<path class="st91" d="M19.7,15.7c0-2.6,53.3-2.7,53.3,0C73,19.6,19.7,19.6,19.7,15.7z"/>
		<path class="st92" d="M19.8,15.7c0-2.6,53.2-2.6,53.2,0C73,19.5,19.8,19.5,19.8,15.7z"/>
		<path class="st93" d="M19.8,15.7c0-2.6,53.1-2.6,53.1,0C72.9,19.5,19.8,19.5,19.8,15.7z"/>
		<path class="st93" d="M19.8,15.7c0-2.5,53.1-2.6,53.1,0C72.9,19.5,19.8,19.5,19.8,15.7z"/>
		<path class="st94" d="M19.9,15.7c0-2.5,53-2.6,53,0C72.9,19.4,19.9,19.4,19.9,15.7z"/>
		<path class="st94" d="M19.9,15.6c0-2.5,53-2.6,53,0C72.8,19.4,19.9,19.4,19.9,15.6z"/>
		<path class="st95" d="M19.9,15.6c0-2.5,52.9-2.5,52.9,0C72.8,19.4,19.9,19.4,19.9,15.6z"/>
		<path class="st96" d="M19.9,15.6c0-2.5,52.8-2.5,52.8,0C72.8,19.3,19.9,19.3,19.9,15.6z"/>
		<path class="st97" d="M20,15.6c0-2.4,52.8-2.5,52.8,0C72.7,19.3,20,19.3,20,15.6z"/>
		<path class="st98" d="M20,15.6c0-2.4,52.7-2.5,52.7,0C72.7,19.2,20,19.2,20,15.6z"/>
		<path class="st97" d="M20.2,15.6c0-2.4,52.4-2.5,52.4,0C72.6,19.2,20.2,19.2,20.2,15.6z"/>
		<path class="st96" d="M20.3,15.6c0-2.4,52.1-2.4,52.1,0C72.4,19.2,20.3,19.2,20.3,15.6z"/>
		<path class="st95" d="M20.5,15.6c0-2.4,51.8-2.4,51.8,0C72.3,19.2,20.5,19.2,20.5,15.6z"/>
		<path class="st94" d="M20.6,15.6c0-2.4,51.5-2.4,51.5,0C72.1,19.2,20.6,19.2,20.6,15.6z"/>
		<path class="st94" d="M20.7,15.6c0-2.3,51.2-2.4,51.2,0C72,19.2,20.7,19.2,20.7,15.6z"/>
		<path class="st93" d="M20.9,15.6c0-2.3,50.9-2.4,50.9,0C71.8,19.1,20.9,19.1,20.9,15.6z"/>
		<path class="st93" d="M21,15.6c0-2.3,50.7-2.4,50.6,0C71.7,19.1,21,19.1,21,15.6z"/>
		<path class="st92" d="M21.2,15.6c0-2.3,50.4-2.4,50.4,0C71.5,19.1,21.2,19.1,21.2,15.6z"/>
		<path class="st91" d="M21.3,15.6c0-2.3,50.1-2.3,50.1,0C71.4,19.1,21.3,19.1,21.3,15.6z"/>
		<path class="st90" d="M21.5,15.6c0-2.3,49.8-2.3,49.8,0C71.2,19.1,21.5,19.1,21.5,15.6z"/>
		<path class="st90" d="M21.6,15.6c0-2.3,49.5-2.3,49.5,0C71.1,19,21.6,19.1,21.6,15.6z"/>
		<path class="st99" d="M21.8,15.6c0-2.3,49.2-2.3,49.2,0C71,19,21.8,19,21.8,15.6z"/>
		<path class="st89" d="M21.9,15.6c0-2.2,48.9-2.3,48.9,0C70.8,19,21.9,19,21.9,15.6z"/>
		<path class="st89" d="M22.1,15.7c0-2.2,48.6-2.3,48.6,0C70.7,19,22.1,19,22.1,15.7z"/>
		<path class="st88" d="M22.2,15.7c0-2.2,48.3-2.3,48.3,0C70.5,19,22.2,19,22.2,15.7z"/>
		<path class="st87" d="M22.4,15.7c0-2.2,48-2.2,48,0C70.4,19,22.4,19,22.4,15.7z"/>
		<path class="st86" d="M22.5,15.7c0-2.2,47.7-2.2,47.7,0C70.2,18.9,22.5,18.9,22.5,15.7z"/>
		<path class="st86" d="M22.7,15.7c0-2.2,47.4-2.2,47.4,0C70.1,18.9,22.7,18.9,22.7,15.7z"/>
		<path class="st86" d="M22.8,15.7c0-2.2,47.1-2.2,47.1,0C69.9,18.9,22.8,18.9,22.8,15.7z"/>
		<path class="st85" d="M23,15.7c0-2.1,46.8-2.2,46.8,0C69.8,18.9,23,18.9,23,15.7z"/>
		<path class="st85" d="M23.1,15.7c0-2.1,46.5-2.2,46.5,0C69.6,18.9,23.1,18.9,23.1,15.7z"/>
		<path class="st84" d="M23.2,15.7c0-2.1,46.2-2.2,46.2,0C69.5,18.9,23.2,18.9,23.2,15.7z"/>
		<path class="st84" d="M23.4,15.7c0-2.1,45.9-2.2,45.9,0C69.3,18.8,23.4,18.8,23.4,15.7z"/>
		<path class="st82" d="M23.5,15.7c0-2.1,45.7-2.1,45.7,0C69.2,18.8,23.5,18.8,23.5,15.7z"/>
		<path class="st82" d="M23.7,15.7c0-2.1,45.4-2.1,45.4,0C69,18.8,23.7,18.8,23.7,15.7z"/>
		<path class="st100" d="M23.8,15.7c0-2.1,45.1-2.1,45.1,0C68.9,18.8,23.8,18.8,23.8,15.7z"/>
		<path class="st81" d="M24,15.7c0-2.1,44.8-2.1,44.8,0C68.7,18.8,24,18.8,24,15.7z"/>
		<path class="st81" d="M24.1,15.7c0-2,44.5-2.1,44.5,0C68.6,18.7,24.1,18.7,24.1,15.7z"/>
		<path class="st80" d="M24.3,15.7c0-2,44.2-2.1,44.2,0C68.5,18.7,24.3,18.7,24.3,15.7z"/>
		<path class="st80" d="M24.4,15.7c0-2,43.9-2.1,43.9,0C68.3,18.7,24.4,18.7,24.4,15.7z"/>
		<path class="st78" d="M24.6,15.7c0-2,43.6-2,43.6,0C68.2,18.7,24.6,18.7,24.6,15.7z"/>
		<path class="st78" d="M24.7,15.7c0-2,43.3-2,43.3,0C68,18.7,24.7,18.7,24.7,15.7z"/>
		<path class="st78" d="M24.9,15.7c0-2,43-2,43,0C67.9,18.7,24.9,18.7,24.9,15.7z"/>
		<path class="st76" d="M25,15.7c0-2,42.7-2,42.7,0C67.7,18.6,25,18.6,25,15.7z"/>
		<path class="st76" d="M25.2,15.7c0-1.9,42.4-2,42.4,0C67.6,18.6,25.2,18.6,25.2,15.7z"/>
		<path class="st75" d="M25.3,15.7c0-1.9,42.1-2,42.1,0C67.4,18.6,25.3,18.6,25.3,15.7z"/>
		<path class="st75" d="M25.4,15.7c0-1.9,41.8-2,41.8,0C67.3,18.6,25.4,18.6,25.4,15.7z"/>
		<path class="st73" d="M25.6,15.7c0-1.9,41.5-1.9,41.5,0C67.1,18.6,25.6,18.6,25.6,15.7z"/>
		<path class="st73" d="M25.7,15.7c0-1.9,41.2-1.9,41.2,0C67,18.6,25.7,18.6,25.7,15.7z"/>
		<path class="st71" d="M25.9,15.7c0-1.9,40.9-1.9,40.9,0C66.8,18.5,25.9,18.5,25.9,15.7z"/>
		<path class="st70" d="M26,15.7c0-1.9,40.7-1.9,40.7,0C66.7,18.5,26,18.5,26,15.7z"/>
		<path class="st70" d="M26.2,15.7c0-1.8,40.4-1.9,40.4,0C66.5,18.5,26.2,18.5,26.2,15.7z"/>
		<path class="st68" d="M26.3,15.7c0-1.8,40.1-1.9,40.1,0C66.4,18.5,26.3,18.5,26.3,15.7z"/>
		<path class="st68" d="M26.5,15.7c0-1.8,39.8-1.9,39.8,0C66.2,18.5,26.5,18.5,26.5,15.7z"/>
		<path class="st66" d="M26.6,15.7c0-1.8,39.5-1.8,39.5,0C66.1,18.4,26.6,18.4,26.6,15.7z"/>
		<path class="st66" d="M26.8,15.7c0-1.8,39.2-1.8,39.2,0C66,18.4,26.8,18.4,26.8,15.7z"/>
		<path class="st101" d="M26.9,15.7c0-1.8,38.9-1.8,38.9,0C65.8,18.4,26.9,18.4,26.9,15.7z"/>
		<path class="st64" d="M27.1,15.7c0-1.8,38.6-1.8,38.6,0C65.7,18.4,27.1,18.4,27.1,15.7z"/>
		<path class="st64" d="M27.2,15.7c0-1.8,38.3-1.8,38.3,0C65.5,18.4,27.2,18.4,27.2,15.7z"/>
		<path class="st63" d="M27.4,15.7c0-1.7,38-1.8,38,0C65.4,18.4,27.4,18.4,27.4,15.7z"/>
		<path class="st102" d="M27.5,15.7c0-1.7,37.7-1.8,37.7,0C65.2,18.3,27.5,18.3,27.5,15.7z"/>
		<path class="st62" d="M27.7,15.7c0-1.7,37.4-1.8,37.4,0C65.1,18.3,27.7,18.3,27.7,15.7z"/>
		<path class="st62" d="M27.8,15.7c0-1.7,37.1-1.7,37.1,0C64.9,18.3,27.8,18.3,27.8,15.7z"/>
		<path class="st103" d="M27.9,15.8c0-1.7,36.8-1.7,36.8,0C64.8,18.3,27.9,18.3,27.9,15.8z"/>
		<path class="st61" d="M28.1,15.8c0-1.7,36.5-1.7,36.5,0C64.6,18.3,28.1,18.3,28.1,15.8z"/>
		<path class="st60" d="M28.2,15.8c0-1.7,36.2-1.7,36.2,0C64.5,18.2,28.2,18.3,28.2,15.8z"/>
		<path class="st60" d="M28.4,15.8c0-1.6,36-1.7,35.9,0C64.3,18.2,28.4,18.2,28.4,15.8z"/>
		<path class="st104" d="M28.5,15.8c0-1.6,35.7-1.7,35.7,0C64.2,18.2,28.5,18.2,28.5,15.8z"/>
		<path class="st59" d="M28.7,15.8c0-1.6,35.4-1.7,35.4,0C64,18.2,28.7,18.2,28.7,15.8z"/>
		<path class="st59" d="M28.8,15.8c0-1.6,35.1-1.6,35.1,0C63.9,18.2,28.8,18.2,28.8,15.8z"/>
		<path class="st58" d="M29,15.8c0-1.6,34.8-1.6,34.8,0C63.8,18.2,29,18.2,29,15.8z"/>
		<path class="st58" d="M29.1,15.8c0-1.6,34.5-1.6,34.5,0C63.6,18.1,29.1,18.1,29.1,15.8z"/>
		<path class="st57" d="M29.3,15.8c0-1.6,34.2-1.6,34.2,0C63.5,18.1,29.3,18.1,29.3,15.8z"/>
		<path class="st57" d="M29.4,15.8c0-1.6,33.9-1.6,33.9,0C63.3,18.1,29.4,18.1,29.4,15.8z"/>
		<path class="st55" d="M29.6,15.8c0-1.5,33.6-1.6,33.6,0C63.2,18.1,29.6,18.1,29.6,15.8z"/>
		<path class="st55" d="M29.7,15.8c0-1.5,33.3-1.6,33.3,0C63,18.1,29.7,18.1,29.7,15.8z"/>
		<path class="st105" d="M29.9,15.8c0-1.5,33-1.5,33,0C62.9,18.1,29.9,18.1,29.9,15.8z"/>
		<path class="st53" d="M30,15.8c0-1.5,32.7-1.5,32.7,0C62.7,18,30,18,30,15.8z"/>
		<path class="st53" d="M30.2,15.8c0-1.5,32.4-1.5,32.4,0C62.6,18,30.2,18,30.2,15.8z"/>
		<path class="st52" d="M30.3,15.8c0-1.5,32.1-1.5,32.1,0C62.4,18,30.3,18,30.3,15.8z"/>
		<path class="st51" d="M30.4,15.8c0-1.5,31.8-1.5,31.8,0C62.3,18,30.4,18,30.4,15.8z"/>
		<path class="st50" d="M30.6,15.8c0-1.4,31.5-1.5,31.5,0C62.1,18,30.6,18,30.6,15.8z"/>
		<path class="st50" d="M30.7,15.8c0-1.4,31.2-1.5,31.2,0C62,17.9,30.7,17.9,30.7,15.8z"/>
		<path class="st49" d="M30.9,15.8c0-1.4,31-1.5,31,0C61.8,17.9,30.9,17.9,30.9,15.8z"/>
		<path class="st49" d="M31,15.8c0-1.4,30.7-1.4,30.7,0C61.7,17.9,31,17.9,31,15.8z"/>
		<path class="st48" d="M31.2,15.8c0-1.4,30.4-1.4,30.4,0C61.5,17.9,31.2,17.9,31.2,15.8z"/>
		<path class="st47" d="M31.3,15.8c0-1.4,30.1-1.4,30.1,0C61.4,17.9,31.3,17.9,31.3,15.8z"/>
		<path class="st46" d="M31.5,15.8c0-1.4,29.8-1.4,29.8,0C61.3,17.9,31.5,17.9,31.5,15.8z"/>
		<path class="st46" d="M31.6,15.8c0-1.4,29.5-1.4,29.5,0C61.1,17.8,31.6,17.8,31.6,15.8z"/>
		<path class="st106" d="M31.8,15.8c0-1.3,29.2-1.4,29.2,0C61,17.8,31.8,17.8,31.8,15.8z"/>
		<path class="st45" d="M31.9,15.8c0-1.3,28.9-1.4,28.9,0C60.8,17.8,31.9,17.8,31.9,15.8z"/>
		<path class="st45" d="M32.1,15.8c0-1.3,28.6-1.3,28.6,0C60.7,17.8,32.1,17.8,32.1,15.8z"/>
		<path class="st43" d="M32.2,15.8c0-1.3,28.3-1.3,28.3,0C60.5,17.8,32.2,17.8,32.2,15.8z"/>
		<path class="st107" d="M32.4,15.8c0-1.3,28-1.3,28,0C60.4,17.8,32.4,17.8,32.4,15.8z"/>
		<path class="st42" d="M32.5,15.8c0-1.3,27.7-1.3,27.7,0C60.2,17.7,32.5,17.7,32.5,15.8z"/>
		<path class="st41" d="M32.7,15.8c0-1.3,27.4-1.3,27.4,0C60.1,17.7,32.7,17.7,32.7,15.8z"/>
		<path class="st40" d="M32.8,15.8c0-1.2,27.1-1.3,27.1,0C59.9,17.7,32.8,17.7,32.8,15.8z"/>
		<path class="st39" d="M32.9,15.8c0-1.2,26.8-1.3,26.8,0C59.8,17.7,32.9,17.7,32.9,15.8z"/>
		<path class="st38" d="M33.1,15.8c0-1.2,26.5-1.2,26.5,0C59.6,17.7,33.1,17.7,33.1,15.8z"/>
		<path class="st38" d="M33.2,15.8c0-1.2,26.2-1.2,26.2,0C59.5,17.6,33.2,17.6,33.2,15.8z"/>
		<path class="st37" d="M33.4,15.8c0-1.2,26-1.2,26,0C59.3,17.6,33.4,17.6,33.4,15.8z"/>
		<path class="st108" d="M33.5,15.8c0-1.2,25.7-1.2,25.7,0C59.2,17.6,33.5,17.6,33.5,15.8z"/>
		<path class="st35" d="M33.7,15.8c0-1.2,25.4-1.2,25.4,0C59,17.6,33.7,17.6,33.7,15.8z"/>
		<path class="st35" d="M33.8,15.9c0-1.1,25.1-1.2,25.1,0C58.9,17.6,33.8,17.6,33.8,15.9z"/>
		<path class="st109" d="M34,15.9c0-1.1,24.8-1.2,24.8,0C58.8,17.6,34,17.6,34,15.9z"/>
		<path class="st33" d="M34.1,15.9c0-1.1,24.5-1.1,24.5,0C58.6,17.5,34.1,17.5,34.1,15.9z"/>
		<path class="st33" d="M34.3,15.9c0-1.1,24.2-1.1,24.2,0C58.5,17.5,34.3,17.5,34.3,15.9z"/>
		<path class="st32" d="M34.4,15.9c0-1.1,23.9-1.1,23.9,0C58.3,17.5,34.4,17.5,34.4,15.9z"/>
		<path class="st31" d="M34.6,15.9c0-1.1,23.6-1.1,23.6,0C58.2,17.5,34.6,17.5,34.6,15.9z"/>
		<path class="st30" d="M34.7,15.9c0-1.1,23.3-1.1,23.3,0C58,17.5,34.7,17.5,34.7,15.9z"/>
		<path class="st30" d="M34.9,15.9c0-1.1,23-1.1,23,0C57.9,17.5,34.9,17.5,34.9,15.9z"/>
		<path class="st28" d="M35,15.9c0-1,22.7-1.1,22.7,0C57.7,17.4,35,17.4,35,15.9z"/>
		<path class="st28" d="M35.2,15.9c0-1,22.4-1.1,22.4,0C57.6,17.4,35.2,17.4,35.2,15.9z"/>
		<path class="st27" d="M35.3,15.9c0-1,22.1-1,22.1,0C57.4,17.4,35.3,17.4,35.3,15.9z"/>
		<path class="st27" d="M35.4,15.9c0-1,21.8-1,21.8,0C57.3,17.4,35.4,17.4,35.4,15.9z"/>
		<path class="st26" d="M35.6,15.9c0-1,21.5-1,21.5,0C57.1,17.4,35.6,17.4,35.6,15.9z"/>
		<path class="st25" d="M35.7,15.9c0-1,21.3-1,21.2,0C57,17.3,35.7,17.3,35.7,15.9z"/>
		<path class="st24" d="M35.9,15.9c0-1,21-1,21,0C56.8,17.3,35.9,17.3,35.9,15.9z"/>
		<path class="st24" d="M36,15.9c0-0.9,20.7-1,20.7,0C56.7,17.3,36,17.3,36,15.9z"/>
		<path class="st23" d="M36.2,15.9c0-0.9,20.4-1,20.4,0C56.5,17.3,36.2,17.3,36.2,15.9z"/>
		<path class="st23" d="M36.3,15.9c0-0.9,20.1-0.9,20.1,0C56.4,17.3,36.3,17.3,36.3,15.9z"/>
		<path class="st22" d="M36.5,15.9c0-0.9,19.8-0.9,19.8,0C56.3,17.3,36.5,17.3,36.5,15.9z"/>
		<path class="st21" d="M36.6,15.9c0-0.9,19.5-0.9,19.5,0C56.1,17.2,36.6,17.2,36.6,15.9z"/>
		<path class="st21" d="M36.8,15.9c0-0.9,19.2-0.9,19.2,0C56,17.2,36.8,17.2,36.8,15.9z"/>
		<path class="st20" d="M36.9,15.9c0-0.9,18.9-0.9,18.9,0C55.8,17.2,36.9,17.2,36.9,15.9z"/>
		<path class="st19" d="M37.1,15.9c0-0.9,18.6-0.9,18.6,0C55.7,17.2,37.1,17.2,37.1,15.9z"/>
		<path class="st18" d="M37.2,15.9c0-0.8,18.3-0.9,18.3,0C55.5,17.2,37.2,17.2,37.2,15.9z"/>
		<path class="st18" d="M37.4,15.9c0-0.8,18-0.8,18,0C55.4,17.1,37.4,17.2,37.4,15.9z"/>
		<path class="st17" d="M37.5,15.9c0-0.8,17.7-0.8,17.7,0C55.2,17.1,37.5,17.1,37.5,15.9z"/>
		<path class="st16" d="M37.6,15.9c0-0.8,17.4-0.8,17.4,0C55.1,17.1,37.6,17.1,37.6,15.9z"/>
		<path class="st15" d="M37.8,15.9c0-0.8,17.1-0.8,17.1,0C54.9,17.1,37.8,17.1,37.8,15.9z"/>
		<path class="st14" d="M37.9,15.9c0-0.8,16.8-0.8,16.8,0C54.8,17.1,37.9,17.1,37.9,15.9z"/>
		<path class="st13" d="M38.1,15.9c0-0.8,16.5-0.8,16.5,0C54.6,17.1,38.1,17.1,38.1,15.9z"/>
		<path class="st13" d="M38.2,15.9c0-0.7,16.3-0.8,16.3,0C54.5,17,38.2,17,38.2,15.9z"/>
		<path class="st12" d="M38.4,15.9c0-0.7,16-0.7,16,0C54.3,17,38.4,17,38.4,15.9z"/>
		<path class="st12" d="M38.5,15.9c0-0.7,15.7-0.7,15.7,0C54.2,17,38.5,17,38.5,15.9z"/>
		<path class="st12" d="M38.7,15.9c0-0.7,15.4-0.7,15.4,0C54,17,38.7,17,38.7,15.9z"/>
		<path class="st10" d="M38.8,15.9c0-0.7,15.1-0.7,15.1,0C53.9,17,38.8,17,38.8,15.9z"/>
		<path class="st10" d="M39,15.9c0-0.7,14.8-0.7,14.8,0C53.8,17,39,17,39,15.9z"/>
		<path class="st9" d="M39.1,15.9c0-0.7,14.5-0.7,14.5,0C53.6,16.9,39.1,16.9,39.1,15.9z"/>
		<path class="st9" d="M39.3,15.9c0-0.7,14.2-0.7,14.2,0C53.5,16.9,39.3,16.9,39.3,15.9z"/>
		<path class="st8" d="M39.4,15.9c0-0.6,13.9-0.7,13.9,0C53.3,16.9,39.4,16.9,39.4,15.9z"/>
		<path class="st7" d="M39.6,15.9c0-0.6,13.6-0.6,13.6,0C53.2,16.9,39.6,16.9,39.6,15.9z"/>
		<path class="st6" d="M39.7,15.9c0-0.6,13.3-0.6,13.3,0C53,16.9,39.7,16.9,39.7,15.9z"/>
		<path class="st6" d="M39.9,16c0-0.6,13-0.6,13,0C52.9,16.8,39.9,16.8,39.9,16z"/>
		<path class="st5" d="M40,16c0-0.6,12.7-0.6,12.7,0C52.7,16.8,40,16.8,40,16z"/>
		<path class="st5" d="M40.1,16c0-0.6,12.4-0.6,12.4,0C52.6,16.8,40.1,16.8,40.1,16z"/>
		<path class="st4" d="M40.3,16c0-0.6,12.1-0.6,12.1,0C52.4,16.8,40.3,16.8,40.3,16z"/>
		<path class="st3" d="M40.4,16c0-0.5,11.8-0.6,11.8,0C52.3,16.8,40.4,16.8,40.4,16z"/>
		<path class="st2" d="M40.6,16c0-0.5,11.5-0.5,11.5,0C52.1,16.8,40.6,16.8,40.6,16z"/>
		<path class="st2" d="M40.7,16c0-0.5,11.3-0.5,11.3,0C52,16.7,40.7,16.7,40.7,16z"/>
		<path class="st1" d="M40.9,16c0-0.5,11-0.5,11,0C51.8,16.7,40.9,16.7,40.9,16z"/>
		<path class="st0" d="M41,16c0-0.5,10.7-0.5,10.7,0C51.7,16.7,41,16.7,41,16z"/>
	</g>
</g>
</svg>
