<svg xmlns="http://www.w3.org/2000/svg" viewBox="0 0 864.21 648.2"><defs><style>.cls-1{fill:none;stroke:#231f20;stroke-miterlimit:10;stroke-width:0.25px;}</style></defs><title>block-oAsset 1</title><g id="Layer_2" data-name="Layer 2"><g id="Layer_1-2" data-name="Layer 1"><line class="cls-1" x1="0.1" y1="0.1" x2="864.1" y2="648.1"/><line class="cls-1" x1="0.1" y1="648.1" x2="864.1" y2="0.1"/><line class="cls-1" x1="432.1" y1="0.1" x2="0.1" y2="648.1"/><line class="cls-1" x1="864.1" y1="648.1" x2="432.1" y2="0.1"/><line class="cls-1" x1="576.1" y1="216.1" x2="576.1" y2="0.1"/><line class="cls-1" x1="288.1" y1="216.1" x2="288.1" y2="0.1"/><line class="cls-1" x1="576.1" y1="216.1" x2="288.1" y2="216.1"/><line class="cls-1" x1="576.1" y1="0.1" x2="288.1" y2="216.1"/><line class="cls-1" x1="288.1" y1="0.1" x2="576.1" y2="216.1"/><line class="cls-1" x1="480.1" y1="72.1" x2="768.1" y2="72.1"/><line class="cls-1" x1="768.1" y1="504.1" x2="768.1" y2="72.1"/><line class="cls-1" x1="480.1" y1="72.1" x2="480.1" y2="504.1"/><line class="cls-1" x1="768.1" y1="504.1" x2="480.1" y2="504.1"/><line class="cls-1" x1="384.1" y1="72.1" x2="384.1" y2="504.1"/><line class="cls-1" x1="384.1" y1="504.1" x2="96.1" y2="504.1"/><line class="cls-1" x1="384.1" y1="72.1" x2="96.1" y2="72.1"/><line class="cls-1" x1="96.1" y1="504.1" x2="96.1" y2="72.1"/></g></g></svg>